<?xml version="1.0" encoding="utf-8"?>
<!-- Generator: Adobe Illustrator 22.1.0, SVG Export Plug-In . SVG Version: 6.00 Build 0)  -->
<svg version="1.1" id="Layer_1" xmlns="http://www.w3.org/2000/svg" xmlns:xlink="http://www.w3.org/1999/xlink" x="0px" y="0px"
	 viewBox="0 0 1024 200" style="enable-background:new 0 0 1024 200;" xml:space="preserve">
<style type="text/css">
	.st0{fill:#A85151;}
	.st1{fill:#A85192;}
	.st2{fill:#A851C7;}
	.st3{fill:#A851FF;}
	.st4{fill:#A88DFF;}
	.st5{fill:#A8C7FF;}
	.st6{fill:#63C7FF;}
	.st7{fill:#E0C7FF;}
	.st8{fill:#E06FFF;}
</style>
<g id="XMLID_1_">
	<g id="XMLID_2_">
		<circle class="st0" cx="107" cy="100" r="84"/>
	</g>
	<g>
		<circle class="st1" cx="238" cy="100" r="84"/>
	</g>
	<g>
		<circle class="st2" cx="383" cy="100" r="84"/>
	</g>
	<g>
		<circle class="st3" cx="523" cy="100" r="84"/>
	</g>
	<g>
		<circle class="st4" cx="669" cy="100" r="84"/>
	</g>
	<g>
		<circle class="st5" cx="808" cy="100" r="84"/>
	</g>
	<g>
		<circle class="st6" cx="917" cy="100" r="84"/>
	</g>
	<path class="st7" d="M29,10c0-14.1,0,188,191,93s207-63,319-14s290,82,360-5s96,40,96,40s18,82-103,35S757,30,679,50
		S539,165,467,157S284,26,244,36s-93,72-129,39S29,25,29,10z"/>
	<path class="st8" d="M918.1,97.5c0.3-4.9-4.6,65.7-149.1,22.1S611.5,86.4,524.2,97.5s-224.9,12.9-276.6-21.3S172.8,85,172.8,85
		s-15.9,27.7,78.3,17.8s106.9-37.8,166.4-26.5s104.8,47.8,160.3,48.9c55.5,1.1,143.9-35.9,174.4-30.2s69.7,30.2,98.2,20.6
		C878.9,106,917.7,102.8,918.1,97.5z"/>
</g>
</svg>
