<svg xmlns="http://www.w3.org/2000/svg" viewBox="0 0 978 174.71"><defs><style>.cls-1{fill:#a85151;}.cls-2{fill:#a85192;}.cls-3{fill:#a851c7;}.cls-4{fill:#a851ff;}.cls-5{fill:#a88dff;}.cls-6{fill:#a8c7ff;}.cls-7{fill:#63c7ff;}.cls-8{fill:#e0c7ff;}.cls-9{fill:#e06fff;}</style></defs><title>Asset 10</title><g id="Layer_2" data-name="Layer 2"><g id="Layer_1-2" data-name="Layer 1"><circle class="cls-1" cx="84" cy="90.71" r="84"/><circle class="cls-2" cx="215" cy="90.71" r="84"/><circle class="cls-3" cx="360" cy="90.71" r="84"/><circle class="cls-4" cx="500" cy="90.71" r="84"/><circle class="cls-5" cx="646" cy="90.71" r="84"/><circle class="cls-6" cx="785" cy="90.71" r="84"/><circle class="cls-7" cx="894" cy="90.71" r="84"/><path class="cls-8" d="M6,.71c0-14.14,0,188,191,93s207-63,319-14,290,82,360-5,96,40,96,40,18,82-103,35-135-129-213-109-140,115-212,107-183-131-223-121-93,72-129,39S6,15.71,6,.71Z"/><path class="cls-9" d="M895.08,88.24c.35-4.94-4.63,65.69-149.08,22.14S588.46,77.15,501.17,88.2s-224.9,12.94-276.56-21.26-74.76,8.77-74.76,8.77S134,103.39,228.15,93.53,335.08,55.77,394.54,67s104.76,47.78,160.29,48.88S698.71,80,729.2,85.67s69.7,30.2,98.19,20.62S894.71,93.48,895.08,88.24Z"/></g></g></svg>