<svg xmlns="http://www.w3.org/2000/svg" viewBox="0 0 978 174.71"><defs><style>.cls-1{fill:#a85151;}.cls-2{fill:#a85192;}.cls-3{fill:#a851c7;}.cls-4{fill:#a851ff;}.cls-5{fill:#a88dff;}.cls-6{fill:#a8c7ff;}.cls-7{fill:#63c7ff;}.cls-8{fill:#e0c7ff;}.cls-9{fill:#e06fff;}</style></defs><title>Asset 1</title><g id="Layer_2" data-name="Layer 2"><g id="Layer_1-2" data-name="Layer 1"><g id="_Group_" data-name="&lt;Group&gt;"><g id="_Group_2" data-name="&lt;Group&gt;"><circle class="cls-1" cx="84" cy="90.71" r="84"/></g><circle class="cls-2" cx="215" cy="90.71" r="84"/><circle class="cls-3" cx="360" cy="90.71" r="84"/><circle class="cls-4" cx="500" cy="90.71" r="84"/><circle class="cls-5" cx="646" cy="90.71" r="84"/><circle class="cls-6" cx="785" cy="90.71" r="84"/><circle class="cls-7" cx="894" cy="90.71" r="84"/><path class="cls-8" d="M6,.71c0-14.1,0,188,191,93s207-63,319-14,290,82,360-5,96,40,96,40,18,82-103,35-135-129-213-109-140,115-212,107-183-131-223-121-93,72-129,39S6,15.71,6,.71Z"/><path class="cls-9" d="M895.1,88.21c.3-4.9-4.6,65.7-149.1,22.1s-157.5-33.2-244.8-22.1-224.9,12.9-276.6-21.3-74.8,8.8-74.8,8.8-15.9,27.7,78.3,17.8S335,55.71,394.5,67s104.8,47.8,160.3,48.9S698.7,80,729.2,85.71s69.7,30.2,98.2,20.6S894.7,93.51,895.1,88.21Z"/></g></g></g></svg>